{"title":"Arthur &amp; George(2015)MPEG-4[DaScubaDude]","uid":15117743,"size":1425995217,"categoryP":"video","categoryS":"tv_shows","magnet":"?xt=urn:btih:a278e9bf7bfd39388d47c883246e0832ad04f891&amp;dn=Arthur+%26amp%3B+George%282015%29MPEG-4%5BDaScubaDude%5D&amp;tr=udp%3A%2F%2Ftracker.leechers-paradise.org%3A6969&amp;tr=udp%3A%2F%2Fzer0day.ch%3A1337&amp;tr=udp%3A%2F%2Fopen.demonii.com%3A1337&amp;tr=udp%3A%2F%2Ftracker.coppersurfer.tk%3A6969&amp;tr=udp%3A%2F%2Fexodus.desync.com%3A6969","seeders":0,"leechers":0,"uploader":"dascuba","files":3,"time":1467058933,"description":"Arthur &amp; George \r\n1h | Biography, Crime, Drama | TV Series (2015– )\r\nSir Arthur Conan Doyle recaptures his zest for life by pursuing and challenging a notorious miscarriage of justice.\r\nStars: Martin Clunes, Arsher Ali, Charles Edwards |\r\n\r\nGeneral\r\nComplete name                            : Georgr&amp;ArthurArthur and George_Title4.mp4\r\nFormat                                   : MPEG-4\r\nFormat profile                           : Base Media\r\nCodec ID                                 : isom (isom/iso2/avc1/mp41)\r\nFile size                                : 468 MiB\r\nDuration                                 : 48mn 51s\r\nOverall bit rate                         : 1 338 Kbps\r\nMovie name                               : Arthur_and_George\r\nGenre                                    : PBS_Masterpiece_Theater\r\nWriting application                      : Lavf54.6.100\r\n\r\nVideo\r\nID                                       : 1\r\nFormat                                   : AVC\r\nFormat/Info                              : Advanced Video Codec\r\nFormat profile                           :   \r\nFormat settings, CABAC                   : No\r\nFormat settings, ReFrames                : 6 frames\r\nCodec ID                                 : avc1\r\nCodec ID/Info                            : Advanced Video Coding\r\nDuration                                 : 48mn 51s\r\nBit rate                                 : 1 204 Kbps\r\nWidth                                    : 720 pixels\r\nHeight                                   : 404 pixels\r\nDisplay aspect ratio                     : 16:9\r\nFrame rate mode                          : Constant\r\nFrame rate                               : 29.970 (30000/1001) fps\r\nColor space                              : YUV\r\nChroma subsampling                       : 4:2:0\r\nBit depth                                : 8 bits\r\nScan type                                : Progressive\r\nBits/(Pixel*Frame)                       : 0.138\r\nStream size                              : 421 MiB (90%)\r\n\r\nAudio\r\nID                                       : 2\r\nFormat                                   : AAC\r\nFormat/Info                              : Advanced Audio Codec\r\nFormat profile                           : LC\r\nCodec ID                                 : 40\r\nDuration                                 : 48mn 51s\r\nBit rate mode                            : Constant\r\nBit rate                                 : 128 Kbps\r\nChannel(s)                               : 2 channels\r\nChannel positions                        : Front: L R\r\nSampling rate                            : 44.1 KHz\r\nFrame rate                               : 43.066 fps (1024 spf)\r\nCompression mode                         : Lossy\r\nStream size                              : 44.7 MiB (10%)\r\nDefault                                  : Yes\r\nAlternate group                          : 1","torrent":{"xt":"urn:btih:a278e9bf7bfd39388d47c883246e0832ad04f891","amp;dn":"Arthur+%26amp%3B+George%282015%29MPEG-4%5BDaScubaDude%5D","amp;tr":["udp%3A%2F%2Ftracker.leechers-paradise.org%3A6969","udp%3A%2F%2Fzer0day.ch%3A1337","udp%3A%2F%2Fopen.demonii.com%3A1337","udp%3A%2F%2Ftracker.coppersurfer.tk%3A6969","udp%3A%2F%2Fexodus.desync.com%3A6969"],"infoHash":"a278e9bf7bfd39388d47c883246e0832ad04f891","infoHashBuffer":{"type":"Buffer","data":[162,120,233,191,123,253,57,56,141,71,200,131,36,110,8,50,173,4,248,145]},"announce":[],"urlList":[]}}